<?xml version="1.0" encoding="utf-8"?>
<!-- Generator: Adobe Illustrator 27.1.0, SVG Export Plug-In . SVG Version: 6.00 Build 0)  -->
<svg version="1.1" id="Ebene_1" xmlns="http://www.w3.org/2000/svg" xmlns:xlink="http://www.w3.org/1999/xlink" x="0px" y="0px"
	 viewBox="0 0 237.81 235.96" style="enable-background:new 0 0 237.81 235.96;" xml:space="preserve">
<style type="text/css">
	.st0{fill:#E8997E;}
	.st1{fill:#EBA68E;}
	.st2{fill:#897839;}
	.st3{fill:#E2C19D;}
	.st4{fill:#013936;}
	.st5{fill:#E3C29E;}
</style>
<g>
	<g>
		<path class="st5" d="M29.6,169.89c-4.76,2.23-10.08,0.25-12.36-4.6c-1.91-4.07-0.85-8.51,2.4-11.1l1.1,2.35
			c-1.49,1.8-1.73,4.63-0.47,7.33c1.69,3.6,5.22,5.19,8.26,3.77c3.04-1.42,4.08-5.16,2.39-8.76c-1.26-2.69-3.59-4.32-5.93-4.33
			l-1.1-2.35c4.08-0.84,8.16,1.18,10.07,5.26C36.25,162.3,34.36,167.66,29.6,169.89z"/>
		<path class="st5" d="M5.4,153.68l-0.68-2.25l23.85-7.23l0.68,2.25L5.4,153.68z"/>
		<path class="st5" d="M5.15,145.75c-1.05,0.23-2.06-0.5-2.33-1.71c-0.27-1.22,0.33-2.31,1.38-2.54c1.01-0.23,2.03,0.5,2.3,1.72
			C6.77,144.43,6.16,145.52,5.15,145.75z M10.16,143.6l-0.51-2.3l17.23-3.85l0.51,2.3L10.16,143.6z"/>
		<path class="st5" d="M17.06,135.16c-5.24,0.41-9.52-3.32-9.94-8.67c-0.35-4.49,2.21-8.26,6.17-9.54l0.2,2.59
			c-2.03,1.16-3.25,3.72-3.02,6.69c0.31,3.97,3.05,6.71,6.4,6.45c3.35-0.26,5.64-3.39,5.33-7.35c-0.23-2.97-1.83-5.31-4.02-6.15
			l-0.2-2.59c4.11,0.65,7.21,3.99,7.56,8.47C25.96,130.41,22.3,134.75,17.06,135.16z"/>
		<path class="st5" d="M17.78,106.98l1.99,3.45l5.26,0.64l-0.28,2.34L0,110.4l0.28-2.34l15.12,1.84l0.09-0.76L8.6,99.83l0.52-4.29
			l7.27,9.32l10.28-7.4l-0.37,3.06L17.78,106.98z"/>
		<path class="st5" d="M20.12,65.1l16.17,7.07l-0.94,2.16l-4.15-1.82c2.2,2.4,2.91,5.69,1.54,8.83c-2.02,4.63-7.18,6.49-12,4.38
			c-4.82-2.11-6.95-7.16-4.93-11.79c1.37-3.14,4.28-4.85,7.53-4.87l-4.15-1.82L20.12,65.1z M27.26,70.79
			c-3.08-1.35-6.58,0.37-8.16,3.98c-1.59,3.65-0.46,7.35,2.62,8.7c3.08,1.34,6.57-0.34,8.16-3.98
			C31.46,75.87,30.34,72.13,27.26,70.79z"/>
		<path class="st5" d="M39.25,49.15l8.78,6.45l-1.39,1.9l-8.03-5.9c-2.31-1.7-5.17-0.97-7.24,1.85c-2.13,2.9-2.03,5.98,0.31,7.7
			l7.98,5.86l-1.39,1.9L24.03,58.45l1.39-1.9l3.26,2.4c-1.55-2.68-1.38-5.66,0.54-8.28C31.77,47.22,35.76,46.59,39.25,49.15z"/>
		<path class="st5" d="M47.29,22.61l16.38,18.77l-1.77,1.55l-2.98-3.42c0.97,3.11,0.2,6.39-2.38,8.64
			c-3.81,3.32-9.26,2.8-12.72-1.16s-3.23-9.44,0.57-12.76c2.58-2.25,5.94-2.56,8.89-1.19l-7.76-8.89L47.29,22.61z M56.1,36.28
			c-2.21-2.53-6.11-2.48-9.08,0.12c-3,2.62-3.55,6.45-1.35,8.98c2.21,2.53,6.08,2.5,9.08-0.12C57.73,42.67,58.31,38.81,56.1,36.28z"
			/>
		<path class="st5" d="M86.85,21.08l-14.84,6.48c1.68,2.21,4.92,2.88,8.22,1.43c2.35-1.02,4.11-2.7,4.71-4.36l2.63-1.15
			c0,3.63-2.24,6.98-6.01,8.63c-4.95,2.16-10.25,0.13-12.36-4.69c-2.1-4.82,0.01-10.09,4.93-12.24c4.88-2.13,10.17-0.14,12.32,4.78
			C86.6,20.32,86.73,20.72,86.85,21.08z M70.99,25.25l12.62-5.51c-1.65-2.23-4.97-2.82-8.14-1.43
			C72.27,19.7,70.52,22.51,70.99,25.25z"/>
		<path class="st5" d="M98.45,17.18l8.3,7.15l-2.74,0.61l-6.73-5.34l-0.78,0.17l-3.81,7.7l-2.94,0.66L94.31,18l-8.19-7.14l2.74-0.61
			l6.62,5.33l0.78-0.17l3.72-7.64l2.97-0.66L98.45,17.18z"/>
		<path class="st5" d="M127.52,15.02c0.06,5.26-3.7,9.28-8.75,9.34c-3.43,0.04-6.18-1.9-7.53-4.86l0.13,11.11l-2.35,0.03
			l-0.29-24.22l2.35-0.03l0.05,4.53c1.28-2.99,3.99-5,7.41-5.04C123.61,5.83,127.46,9.76,127.52,15.02z M125.03,15.05
			c-0.04-3.36-3.01-5.85-6.99-5.8c-3.94,0.05-6.89,2.61-6.85,5.96c0.04,3.36,3.05,5.85,6.99,5.8
			C122.16,20.96,125.07,18.4,125.03,15.05z"/>
		<path class="st5" d="M134.09,0l2.33,0.32L133,25.01l-2.33-0.32L134.09,0z"/>
		<path class="st5" d="M138.58,16.59c1.46-5.05,6.46-7.75,11.61-6.26c5.12,1.48,7.9,6.43,6.44,11.48
			c-1.46,5.05-6.46,7.75-11.58,6.27C139.9,26.59,137.12,21.64,138.58,16.59z M154.27,21.13c0.93-3.23-1.22-6.48-5.01-7.58
			c-3.82-1.11-7.35,0.5-8.29,3.73c-0.93,3.22,1.19,6.47,5.01,7.58C149.78,25.95,153.34,24.36,154.27,21.13z"/>
		<path class="st5" d="M172.98,19.77l-1.78,3.64c-3.92-1.91-7.16-1.19-8.66,1.89l-3.68,7.53l-2.11-1.03l7.74-15.86l2.11,1.03
			l-2.05,4.2C167.03,18.94,170.09,18.35,172.98,19.77z"/>
		<path class="st5" d="M185.45,40.59l-13.19-9.39c-1.03,2.58,0.06,5.7,3,7.78c2.09,1.49,4.43,2.13,6.16,1.79l2.34,1.67
			c-3.11,1.86-7.14,1.67-10.49-0.72c-4.4-3.13-5.39-8.72-2.34-13.01c3.05-4.28,8.66-5.18,13.03-2.07c4.34,3.09,5.35,8.65,2.24,13.02
			C185.97,39.98,185.7,40.3,185.45,40.59z M173.72,29.14l11.22,7.99c1.06-2.56-0.14-5.71-2.96-7.72
			C179.13,27.38,175.82,27.32,173.72,29.14z"/>
		<path class="st5" d="M208.38,49.87l-2.29,0.46l-0.41-2.93l-0.04-0.79l-0.49,0.6l-2.29,1.96l-1.24-1.45l2.29-1.96l0.67-0.39
			l-0.77-0.16L201,44.38l0.79-2.22l2.65,1.24l0.68,0.37l-0.26-0.73l-0.81-2.81l2.29-0.41l0.41,2.93l0.01,0.76l0.49-0.6l2.29-1.96
			l1.24,1.45l-2.29,1.96l-0.65,0.42l0.75,0.13l2.83,0.86l-0.78,2.17l-2.68-1.22l-0.63-0.37L208.38,49.87z"/>
		<path class="st5" d="M208.33,66.28c4.77-2.22,10.08-0.24,12.35,4.63c1.9,4.08,0.84,8.51-2.42,11.1l-1.1-2.35
			c1.49-1.8,1.74-4.63,0.48-7.33c-1.68-3.61-5.21-5.2-8.26-3.79c-3.04,1.42-4.09,5.15-2.41,8.76c1.26,2.7,3.58,4.32,5.92,4.34
			l1.1,2.35c-4.08,0.83-8.16-1.2-10.06-5.28C201.66,73.85,203.56,68.5,208.33,66.28z"/>
		<path class="st5" d="M232.5,82.53l0.68,2.25l-23.86,7.18l-0.68-2.25L232.5,82.53z"/>
		<path class="st5" d="M227.71,92.63l0.51,2.3l-17.23,3.81l-0.51-2.3L227.71,92.63z M232.73,90.49c1.05-0.23,2.06,0.5,2.33,1.72
			c0.27,1.22-0.34,2.31-1.39,2.54c-1.01,0.22-2.03-0.51-2.3-1.72C231.11,91.8,231.72,90.71,232.73,90.49z"/>
		<path class="st5" d="M220.8,101.05c5.24-0.4,9.52,3.34,9.92,8.69c0.34,4.49-2.22,8.25-6.19,9.52l-0.19-2.59
			c2.03-1.16,3.26-3.72,3.04-6.68c-0.3-3.97-3.04-6.71-6.39-6.46c-3.35,0.25-5.64,3.38-5.35,7.34c0.22,2.97,1.82,5.31,4,6.15
			l0.19,2.59c-4.11-0.66-7.21-4-7.55-8.49C211.89,105.78,215.56,101.44,220.8,101.05z"/>
		<path class="st5" d="M220.03,129.23l-1.98-3.45l-5.26-0.65l0.29-2.34l24.73,3.06l-0.29,2.34l-15.11-1.87l-0.09,0.76l6.87,9.32
			l-0.53,4.29l-7.25-9.34l-10.29,7.38l0.38-3.06L220.03,129.23z"/>
		<path class="st5" d="M217.58,171.12l-16.15-7.11l0.95-2.15l4.15,1.83c-2.19-2.4-2.9-5.7-1.52-8.84c2.04-4.62,7.2-6.47,12.01-4.35
			c4.81,2.12,6.94,7.18,4.9,11.8c-1.38,3.14-4.29,4.84-7.54,4.85l4.15,1.83L217.58,171.12z M210.45,165.41
			c3.07,1.35,6.58-0.35,8.17-3.96c1.6-3.64,0.48-7.35-2.6-8.71c-3.07-1.35-6.57,0.32-8.17,3.96
			C206.27,160.32,207.38,164.06,210.45,165.41z"/>
		<path class="st5" d="M198.43,187.02l-8.77-6.48l1.4-1.89l8.02,5.92c2.31,1.71,5.17,0.98,7.25-1.83c2.14-2.9,2.05-5.97-0.29-7.7
			l-7.96-5.88l1.4-1.89l14.2,10.49l-1.4,1.89l-3.26-2.41c1.54,2.69,1.37,5.66-0.56,8.28C205.9,188.96,201.91,189.59,198.43,187.02z"
			/>
		<path class="st5" d="M190.36,213.51l-16.34-18.8l1.78-1.54l2.97,3.42c-0.96-3.11-0.19-6.39,2.39-8.64
			c3.81-3.31,9.27-2.79,12.72,1.18c3.45,3.97,3.21,9.45-0.6,12.76c-2.59,2.25-5.94,2.55-8.89,1.17l7.74,8.9L190.36,213.51z
			 M181.58,199.82c2.2,2.53,6.11,2.49,9.08-0.1c3-2.61,3.57-6.45,1.36-8.98c-2.2-2.53-6.08-2.51-9.08,0.1
			C179.97,193.43,179.38,197.29,181.58,199.82z"/>
		<path class="st5" d="M150.79,214.97l14.85-6.45c-1.68-2.21-4.91-2.88-8.21-1.45c-2.35,1.02-4.11,2.69-4.71,4.35l-2.63,1.14
			c0.01-3.63,2.25-6.98,6.03-8.62c4.95-2.15,10.25-0.11,12.35,4.71c2.1,4.82-0.03,10.09-4.95,12.22c-4.89,2.12-10.17,0.12-12.31-4.8
			C151.05,215.73,150.91,215.33,150.79,214.97z M166.65,210.84l-12.63,5.49c1.65,2.23,4.96,2.82,8.14,1.45
			C165.36,216.38,167.12,213.57,166.65,210.84z"/>
		<path class="st5" d="M139.19,218.85l-8.29-7.16l2.74-0.61l6.72,5.35l0.78-0.17l3.82-7.69l2.94-0.65l-4.56,10.12l8.18,7.15
			l-2.74,0.61l-6.61-5.34l-0.78,0.17l-3.73,7.63l-2.97,0.66L139.19,218.85z"/>
		<path class="st5" d="M110.09,220.96c-0.05-5.26,3.72-9.28,8.77-9.33c3.43-0.03,6.18,1.91,7.52,4.88l-0.11-11.11l2.35-0.02
			l0.24,24.23l-2.35,0.02l-0.04-4.53c-1.29,2.99-4,4.99-7.43,5.02C113.98,230.16,110.14,226.22,110.09,220.96z M112.58,220.93
			c0.03,3.36,3,5.86,6.98,5.82c3.95-0.04,6.9-2.59,6.86-5.95c-0.03-3.36-3.03-5.85-6.98-5.82
			C115.46,215.02,112.54,217.58,112.58,220.93z"/>
		<path class="st5" d="M103.5,235.96l-2.33-0.33l3.46-24.67l2.33,0.33L103.5,235.96z"/>
		<path class="st5" d="M99.02,219.36c-1.47,5.05-6.48,7.74-11.63,6.23c-5.12-1.49-7.89-6.45-6.42-11.5
			c1.47-5.05,6.48-7.74,11.59-6.24C97.72,209.36,100.49,214.31,99.02,219.36z M83.34,214.79c-0.94,3.22,1.21,6.48,5,7.59
			c3.82,1.11,7.35-0.49,8.29-3.71c0.94-3.22-1.18-6.47-5-7.59C87.84,209.97,84.28,211.56,83.34,214.79z"/>
		<path class="st5" d="M64.66,216.12l1.78-3.63c3.91,1.92,7.16,1.2,8.67-1.88l3.69-7.52l2.11,1.04l-7.78,15.84l-2.11-1.04l2.06-4.19
			C70.61,216.96,67.55,217.54,64.66,216.12z"/>
		<path class="st5" d="M52.23,195.27l13.17,9.42c1.04-2.58-0.05-5.69-2.98-7.79c-2.08-1.49-4.42-2.14-6.15-1.8l-2.34-1.67
			c3.11-1.86,7.14-1.66,10.49,0.74c4.39,3.14,5.37,8.73,2.31,13.01c-3.06,4.28-8.67,5.16-13.03,2.04c-4.33-3.1-5.33-8.66-2.21-13.03
			C51.71,195.88,51.98,195.56,52.23,195.27z M63.94,206.75l-11.2-8.01c-1.06,2.56,0.13,5.71,2.95,7.72
			C58.52,208.49,61.83,208.56,63.94,206.75z"/>
		<path class="st5" d="M29.34,185.99l2.29-0.46l0.41,2.93l0.04,0.79l0.49-0.6l2.29-1.96l1.24,1.45l-2.29,1.96l-0.67,0.39l0.77,0.16
			l2.81,0.83l-0.79,2.22l-2.65-1.24l-0.68-0.37l0.26,0.73l0.81,2.81l-2.29,0.41l-0.41-2.93l-0.01-0.76l-0.49,0.6l-2.29,1.96
			l-1.24-1.45l2.29-1.96l0.65-0.42l-0.75-0.13l-2.83-0.86l0.78-2.17l2.68,1.22l0.63,0.37L29.34,185.99z"/>
	</g>
</g>
</svg>
